<svg width="188" height="189" viewBox="0 0 188 189" fill="none" xmlns="http://www.w3.org/2000/svg">
        <circle cx="93.8051" cy="94.2281" r="93.8051" fill="#6137FE"/>
        <g clip-path="url(#clip0)">
        <path d="M94.0772 42.2699C94.4557 42.2855 94.6494 42.5593 94.8698 42.8153C97.1896 45.4958 99.5161 48.1697 101.84 50.8457C104.697 54.134 107.551 57.4267 110.412 60.7128C112.037 62.5785 113.669 64.4375 115.299 66.3009C117.85 69.2196 120.397 72.145 122.957 75.0548C125.299 77.7175 127.673 80.3512 130.006 83.0228C132.773 86.1931 135.503 89.3968 138.265 92.5738C139.986 94.553 141.741 96.5033 143.466 98.478C145.897 101.259 148.308 104.053 150.74 106.831C152.492 108.833 154.266 110.814 156.02 112.813C158.111 115.193 160.19 117.582 162.466 120.189C147.059 120.189 131.914 120.189 116.77 120.189C116.412 119.027 116.038 117.869 115.695 116.703C113.17 108.096 110.643 99.4888 108.132 90.8773C105.558 82.0544 102.994 73.227 100.433 64.4018C98.6545 58.2705 96.9225 52.1236 95.0746 46.0101C94.7607 44.9682 94.8164 43.7259 93.8546 42.9222C93.8524 42.7063 93.8501 42.4903 93.8479 42.2744C93.9236 42.2721 93.9993 42.2699 94.0772 42.2699Z" fill="#E8E8E8"/>
        <path d="M70.8789 120.643C70.663 120.619 70.4448 120.594 70.2288 120.568C70.2333 120.425 70.6585 120.338 70.3446 120.2C70.0975 120.091 69.7613 120.18 69.4652 120.18C55.2189 120.18 40.9749 120.18 26.7286 120.18C26.3212 120.18 25.916 120.18 25.395 120.18C26.0006 118.94 26.9757 118.092 27.7861 117.144C30.6224 113.833 33.559 110.612 36.4287 107.33C39.7838 103.494 43.0921 99.6202 46.445 95.7842C49.3147 92.5026 52.2356 89.2655 55.1031 85.9839C58.456 82.148 61.7688 78.2764 65.1194 74.4382C67.9134 71.2389 70.7498 68.0753 73.5438 64.8761C76.3624 61.6501 79.1408 58.393 81.9571 55.1671C84.2658 52.5222 86.6079 49.9107 88.9255 47.2747C90.2168 45.8054 91.4903 44.3204 92.7615 42.8332C92.9819 42.5772 93.1711 42.3033 93.5429 42.261L93.6075 42.2722C92.9418 44.543 92.2717 46.8117 91.6105 49.0825C89.4843 56.3938 87.3649 63.705 85.2387 71.0163C83.4243 77.2634 81.6076 83.5082 79.7865 89.7553C77.667 97.0287 75.5186 104.295 73.4281 111.578C72.5687 114.594 71.5557 117.573 70.8789 120.643Z" fill="#E8E8E8"/>
        <path d="M93.8546 42.9198C94.8164 43.7235 94.7607 44.968 95.0747 46.0077C96.9225 52.119 98.6524 58.2659 100.433 64.3994C102.996 73.2268 105.558 82.052 108.132 90.8749C110.646 99.4864 113.17 108.093 115.695 116.7C116.038 117.867 116.412 119.025 116.77 120.187C116.768 120.331 116.766 120.474 116.766 120.619C110.65 127.632 104.537 134.645 98.4164 141.655C96.9537 143.329 95.4732 144.988 93.9993 146.653C93.681 146.259 93.8324 145.796 93.8324 145.367C93.8257 111.662 93.8257 77.9578 93.8257 44.2534C93.8257 43.8081 93.8435 43.3628 93.8546 42.9198Z" fill="#D1D1D1"/>
        <path d="M93.6119 42.272C93.6899 42.272 93.7678 42.272 93.8457 42.272C93.8479 42.4879 93.8502 42.7039 93.8524 42.9198C93.8435 43.3651 93.8257 43.8081 93.8257 44.2534C93.8234 77.9578 93.8234 111.662 93.8324 145.367C93.8324 145.796 93.681 146.259 93.9993 146.653C93.4828 147.043 93.3938 146.455 93.2179 146.257C86.9396 139.104 80.6747 131.94 74.4143 124.771C73.2232 123.406 72.0566 122.021 70.8789 120.643C71.5557 117.573 72.5665 114.594 73.4347 111.578C75.5253 104.295 77.6737 97.0285 79.7931 89.7551C81.6143 83.5103 83.4287 77.2632 85.2454 71.0161C87.3693 63.7048 89.491 56.3936 91.6172 49.0823C92.2762 46.8115 92.9463 44.5428 93.6119 42.272Z" fill="#BABABA"/>
        </g>
        <defs>
        <clipPath id="clip0">
            <rect width="137.071" height="104.522" fill="white" transform="translate(25.395 42.261)"/>
        </clipPath>
    </defs>
</svg>
