<svg width="1024" height="245" viewBox="0 0 1024 245" fill="none" xmlns="http://www.w3.org/2000/svg">
<path d="M1022.97 203.21H32.2002L55.2002 0H979.34L1022.97 203.21Z" fill="url(#paint0_linear)"/>
<path d="M184.63 147.35C198.664 147.35 210.04 135.974 210.04 121.94C210.04 107.906 198.664 96.53 184.63 96.53C170.597 96.53 159.22 107.906 159.22 121.94C159.22 135.974 170.597 147.35 184.63 147.35Z" fill="white"/>
<path d="M252.4 163.73C283.946 163.73 309.52 138.157 309.52 106.61C309.52 75.0635 283.946 49.49 252.4 49.49C220.853 49.49 195.28 75.0635 195.28 106.61C195.28 138.157 220.853 163.73 252.4 163.73Z" fill="white"/>
<path d="M321.22 134.24C335.712 134.24 347.46 122.492 347.46 108C347.46 93.5081 335.712 81.76 321.22 81.76C306.728 81.76 294.98 93.5081 294.98 108C294.98 122.492 306.728 134.24 321.22 134.24Z" fill="white"/>
<path d="M357.18 127.2C367.784 127.2 376.38 118.604 376.38 108C376.38 97.3961 367.784 88.8 357.18 88.8C346.576 88.8 337.98 97.3961 337.98 108C337.98 118.604 346.576 127.2 357.18 127.2Z" fill="white"/>
<path d="M395.48 123.18C409.497 123.18 420.86 111.817 420.86 97.8C420.86 83.783 409.497 72.42 395.48 72.42C381.463 72.42 370.1 83.783 370.1 97.8C370.1 111.817 381.463 123.18 395.48 123.18Z" fill="white"/>
<path d="M423.12 103.93C429.764 103.93 435.15 98.544 435.15 91.9C435.15 85.256 429.764 79.87 423.12 79.87C416.476 79.87 411.09 85.256 411.09 91.9C411.09 98.544 416.476 103.93 423.12 103.93Z" fill="white"/>
<path d="M442.44 118.38C451.409 118.38 458.68 111.109 458.68 102.14C458.68 93.1709 451.409 85.9 442.44 85.9C433.471 85.9 426.2 93.1709 426.2 102.14C426.2 111.109 433.471 118.38 442.44 118.38Z" fill="white"/>
<path d="M462.76 120.77C469.454 120.77 474.88 115.344 474.88 108.65C474.88 101.956 469.454 96.53 462.76 96.53C456.066 96.53 450.64 101.956 450.64 108.65C450.64 115.344 456.066 120.77 462.76 120.77Z" fill="white"/>
<path d="M493.29 132.43C505.866 132.43 516.06 122.236 516.06 109.66C516.06 97.0845 505.866 86.89 493.29 86.89C480.715 86.89 470.52 97.0845 470.52 109.66C470.52 122.236 480.715 132.43 493.29 132.43Z" fill="white"/>
<path d="M561.5 112.35C575.561 112.35 586.96 100.951 586.96 86.89C586.96 72.8288 575.561 61.43 561.5 61.43C547.439 61.43 536.04 72.8288 536.04 86.89C536.04 100.951 547.439 112.35 561.5 112.35Z" fill="white"/>
<path d="M590.5 90.43C606.516 90.43 619.5 77.4463 619.5 61.43C619.5 45.4137 606.516 32.43 590.5 32.43C574.484 32.43 561.5 45.4137 561.5 61.43C561.5 77.4463 574.484 90.43 590.5 90.43Z" fill="white"/>
<path d="M621.42 66.03C626.783 66.03 631.13 61.6827 631.13 56.32C631.13 50.9573 626.783 46.61 621.42 46.61C616.057 46.61 611.71 50.9573 611.71 56.32C611.71 61.6827 616.057 66.03 621.42 66.03Z" fill="white"/>
<path d="M640.83 67.33C648.247 67.33 654.26 61.3172 654.26 53.9C654.26 46.4828 648.247 40.47 640.83 40.47C633.413 40.47 627.4 46.4828 627.4 53.9C627.4 61.3172 633.413 67.33 640.83 67.33Z" fill="white"/>
<path d="M681.03 80.41C690.192 80.41 697.62 72.9824 697.62 63.82C697.62 54.6576 690.192 47.23 681.03 47.23C671.868 47.23 664.44 54.6576 664.44 63.82C664.44 72.9824 671.868 80.41 681.03 80.41Z" fill="white"/>
<path d="M710.98 85.82C720.143 85.82 727.57 78.3924 727.57 69.23C727.57 60.0676 720.143 52.64 710.98 52.64C701.818 52.64 694.39 60.0676 694.39 69.23C694.39 78.3924 701.818 85.82 710.98 85.82Z" fill="white"/>
<path d="M749.24 101.48C765.819 101.48 779.26 88.0396 779.26 71.46C779.26 54.8804 765.819 41.44 749.24 41.44C732.66 41.44 719.22 54.8804 719.22 71.46C719.22 88.0396 732.66 101.48 749.24 101.48Z" fill="white"/>
<path d="M775.1 98.58C780.418 98.58 784.73 94.2685 784.73 88.95C784.73 83.6315 780.418 79.32 775.1 79.32C769.781 79.32 765.47 83.6315 765.47 88.95C765.47 94.2685 769.781 98.58 775.1 98.58Z" fill="white"/>
<path d="M788.88 111.82C795.375 111.82 800.64 106.555 800.64 100.06C800.64 93.5651 795.375 88.3 788.88 88.3C782.385 88.3 777.12 93.5651 777.12 100.06C777.12 106.555 782.385 111.82 788.88 111.82Z" fill="white"/>
<path d="M785.21 88.74C785.233 90.4702 784.853 92.182 784.1 93.74M183.26 95.88C187.533 95.8766 191.755 96.821 195.619 98.6453C199.484 100.47 202.896 103.128 205.61 106.43L183.26 95.88ZM321.13 81.09C326.544 81.1068 331.827 82.7577 336.288 85.8265C340.748 88.8954 344.179 93.2394 346.13 98.29L321.13 81.09ZM303.83 80.52C305.649 84.1519 307.077 87.9666 308.09 91.9L303.83 80.52ZM414.18 79.86C415.883 81.6887 417.33 83.7409 418.48 85.96L414.18 79.86ZM369.69 96C369.795 93.6167 370.236 91.2602 371 89L369.69 96ZM434.09 85.8C435.09 87.6882 435.612 89.7931 435.61 91.93L434.09 85.8ZM457.91 95.54C458.486 97.0427 458.852 98.6174 459 100.22L457.91 95.54ZM471.3 102C472.043 99.9038 473.052 97.911 474.3 96.07L471.3 102ZM560.51 60.91C564.023 60.8723 567.518 61.4232 570.85 62.54L560.51 60.91ZM613.69 49.66C614.654 48.5367 615.844 47.63 617.183 46.9992C618.522 46.3684 619.98 46.0279 621.46 46L613.69 49.66ZM627 53.86C626.967 51.6629 627.455 49.4893 628.423 47.5167C629.391 45.5441 630.812 43.8285 632.57 42.51L627 53.86ZM692.63 51.2C694.356 52.8027 695.731 54.7449 696.671 56.9046C697.61 59.0642 698.094 61.3948 698.09 63.75L692.63 51.2ZM718.62 71.46C718.705 63.7636 721.624 56.3687 726.82 50.69L718.62 71.46ZM779.75 71.46C779.754 75.6242 778.907 79.7454 777.26 83.57L779.75 71.46Z" stroke="#F0ECFF" stroke-linecap="round" stroke-linejoin="round"/>
<path d="M240.78 97.8L312.71 117.48L320.54 109.66L317.19 97.8L345.51 110.33L288.47 130.15L337.31 162.65H361.9L358.77 150.28L346.2 143.87L340.89 135.97L381.13 153.11L379.05 145.21L374.33 144.17L368.02 136.12L405.28 156.54L429.58 162.65L325.67 194.32L313.14 161.84L257.4 147.35L244.1 150.85L267.37 114.03L258.93 118.38L254.59 108H249.47L240.78 97.8V97.8ZM647.5 47.23L736.38 81.03L873.96 115.98L861.38 137.78L807.38 120.77L724.5 110.78L731.08 86.89L671.67 77.52L676.37 63.82L659.47 62.39L647.5 47.23" fill="#6C55C1"/>
<path d="M185.81 127.21L240.78 97.8L249.47 108H254.59L258.93 118.38L267.37 114.03L244.1 150.85L257.4 147.35L313.14 161.84L325.67 194.32L243.85 213.75L185.81 127.21V127.21ZM317.19 97.8L293 112.09L312.71 117.48L320.54 109.66L317.19 97.8V97.8ZM288.47 130.15L345.51 110.33L409.54 88.2L443.86 113.31L429.58 117.02L504.47 138.74L397.81 152.45L368.02 136.12L374.33 144.17L379.05 145.21L381.13 153.11L340.89 135.97L346.2 143.87L358.77 150.28L361.9 162.65H337.31L288.47 130.15V130.15Z" fill="#F0ECFF"/>
<path d="M409.54 88.2L443.86 113.31L429.58 117.02L514.64 142.77L471.21 120.77L484.96 115.03L431.73 96.53L409.54 88.2V88.2Z" fill="#6C55C1"/>
<path d="M471.21 120.77L647.5 47.23L659.47 62.39L676.37 63.82L671.67 77.52L731.08 86.89L724.5 110.78L807.38 120.77L861.38 137.78L854.1 167.36L750.56 153.74H553.35L626.88 122.05L514.64 142.77L471.21 120.77V120.77Z" fill="#F0ECFF"/>
<path d="M979.34 0L964 60.76L949 32.43L928.4 107.29L907.79 71.46L895.21 100.06L881 7.6L863.87 128.6L842.2 57.47L824 132.47L804.45 100.19L787.45 149.62C770.45 146.62 753.45 150.79 733.18 150.79C712.64 150.79 691.63 143.85 679.11 144.91C666.59 145.97 649.36 151.91 621.32 149.04C593.28 146.17 557.32 150.79 557.32 150.79L624.22 123.27C573.31 130 524 132.51 524 132.51C499 132.51 470.43 141.68 470.43 141.68C416.86 144.51 397.73 152.5 397.73 152.5L405.2 156.59L415.7 159.23L392.12 165.13L368.2 168.23C358.11 169.93 341.93 177.61 331.01 183.34C329.78 181.01 328.62 180.68 328.62 180.68C327.925 181.562 327.433 182.586 327.18 183.68C326.723 181.616 325.845 179.669 324.6 177.96C322.82 179.629 321.571 181.785 321.01 184.16C320.878 182.704 320.383 181.305 319.57 180.09C317.817 181.298 316.361 182.888 315.31 184.74C315.11 182.329 314.103 180.057 312.45 178.29C309.62 180.29 309.61 182.65 309.63 183.08C309.598 181.112 308.966 179.2 307.82 177.6C303.82 180.17 302.17 187.7 302.17 187.7C302.274 186.018 301.854 184.345 300.97 182.91C296.97 183.77 295.9 186.13 295.9 186.13C293.75 178.76 289.26 176.95 289.26 176.95C287.34 183.73 289.84 188.15 289.84 188.15C287.455 188.102 285.094 188.633 282.96 189.7C284.148 187.939 284.669 185.811 284.43 183.7C282.733 184.077 281.246 185.094 280.28 186.54C280.885 184.426 280.754 182.17 279.91 180.14C278.155 180.848 276.651 182.063 275.59 183.63C276.59 179.42 274.98 173.98 274.98 173.98C271.58 176.27 270.49 181.78 270.49 181.78C270.293 181.11 269.869 180.53 269.29 180.14C268.773 180.625 268.376 181.223 268.131 181.888C267.887 182.553 267.801 183.266 267.88 183.97C256.21 174.29 249.31 171.58 246.22 170.82C247.453 169.074 248.236 167.051 248.5 164.93C246.548 164.817 244.623 165.433 243.1 166.66C244.216 163.764 244.216 160.556 243.1 157.66C240.36 158.21 237.7 163.06 237.7 163.06C237.967 159.434 236.932 155.831 234.78 152.9C227.72 157.96 224.78 163.74 223.67 167.05L165.25 60.76L138 113.81L122.57 39.67L112.93 106.43L79.65 0H74.35L65.67 27.73L55.2 0L0 0.25V245H1024V0H979.34ZM776.06 182.87C750.89 176.75 705.25 184.87 705.25 184.87C677.43 182.42 656.25 189.44 656.25 189.44C649.023 183.892 640.335 180.57 631.25 179.88C691.65 156.81 761.45 159.17 783.7 160.67L776.06 182.87Z" fill="white"/>
<path d="M340.89 135.97L325.67 150.22L342.51 138.38L340.89 135.97V135.97ZM368.02 136.12L360.02 144.12L361.65 144.81L370.32 139.05L368.02 136.12ZM429.58 117.02L409.54 136.12L429.58 126.12L427.77 120.77L432.73 117.98L429.58 117.02ZM333.18 184L334.87 174.43L336.85 184L338.75 168.53L341.32 180.48L343.52 168.23L346.23 178.8L333.18 184ZM354.01 173.8L354.81 168.67L355.91 173.8H354.01V173.8ZM361.27 170.63L362.29 165.13L364.71 171.33L365.89 165.55L368.24 170.63H361.27ZM384.27 166.49L384.62 163.8C384.64 163.714 384.688 163.637 384.757 163.583C384.826 163.528 384.912 163.498 385 163.498C385.088 163.498 385.174 163.528 385.243 163.583C385.312 163.637 385.36 163.714 385.38 163.8L385.91 166.51L389 166L389.54 162.28L390.36 166.49L394.41 165.49L395.07 159.57L395.67 165.13L396.49 164.69L396.7 161.95C396.71 161.906 396.735 161.866 396.77 161.838C396.806 161.81 396.85 161.794 396.895 161.794C396.94 161.794 396.984 161.81 397.02 161.838C397.055 161.866 397.08 161.906 397.09 161.95L397.59 164.95L399.07 164.18L399.28 161.61L400.05 164.18L384.27 166.49ZM776.8 184.05C776.8 184.05 776.61 178.53 771.8 171.26C771.8 171.26 769.8 174.17 769.8 179.79C768.342 177.859 766.451 176.297 764.28 175.23C764.28 175.23 762.73 177.07 765.93 184.92L776.8 184.05ZM755.2 184.53C755.298 182.372 755.137 180.21 754.72 178.09C753.779 178.381 752.912 178.87 752.175 179.523C751.439 180.177 750.851 180.981 750.45 181.88C751.272 179.41 751.272 176.74 750.45 174.27C750.45 174.27 745.32 177.66 744.35 182.79C743.712 181.02 742.687 179.414 741.35 178.09C739.569 181.004 738.915 184.468 739.51 187.83C740.58 193.25 755.2 184.53 755.2 184.53ZM725.18 189.6C725.616 187.519 725.714 185.382 725.47 183.27C724.374 183.673 723.378 184.307 722.55 185.13C722.677 182.804 722.39 180.475 721.7 178.25C719.544 178.743 717.668 180.065 716.48 181.93C716.48 181.93 717.05 180.93 715.39 177.28C714.24 178.179 713.326 179.344 712.727 180.675C712.127 182.006 711.861 183.463 711.95 184.92L725.18 189.6ZM707.34 185.13C707.34 185.13 708.15 180.44 706.12 176.68C704.812 177.47 703.813 178.684 703.29 180.12C703.29 180.12 703.45 178.7 702.08 175.75C700.422 177.398 699.426 179.597 699.28 181.93C699.28 181.93 699.49 180.68 695.95 178.6C695.535 179.721 695.469 180.941 695.76 182.1C694.773 181.317 693.538 180.916 692.28 180.97C692.31 183.091 692.852 185.173 693.86 187.04L707.34 185.13Z" fill="white"/>
<path d="M722.67 192.45C722.67 192.45 729.49 186.29 733.31 174.27" stroke="white" stroke-miterlimit="10"/>
<path d="M733.31 175.54C734.011 175.54 734.58 174.971 734.58 174.27C734.58 173.569 734.011 173 733.31 173C732.609 173 732.04 173.569 732.04 174.27C732.04 174.971 732.609 175.54 733.31 175.54Z" fill="white"/>
<path d="M683.26 174.05C683.962 174.05 684.53 173.481 684.53 172.78C684.53 172.079 683.962 171.51 683.26 171.51C682.559 171.51 681.99 172.079 681.99 172.78C681.99 173.481 682.559 174.05 683.26 174.05Z" fill="white"/>
<path d="M685.04 180.68L681.61 178.24M731.35 179.45L735.5 178.09L731.35 179.45ZM728.84 184.35L726.94 180.44L728.84 184.35ZM685.41 185.49C685.305 181.172 684.581 176.892 683.26 172.78L685.41 185.49ZM684.76 177.43L687.11 174.72L684.76 177.43Z" stroke="white" stroke-miterlimit="10"/>
<path d="M788.25 149.7L785.69 141.39L783.22 151.92L780.67 143.45L778.78 152.25L770.7 152.6L767 137.78L764.19 153L762.19 143L760.59 153L755.3 152.05L752.75 140.35L751.15 147L750.29 138.12C750.282 138.024 750.24 137.935 750.172 137.867C750.103 137.8 750.013 137.76 749.917 137.754C749.821 137.747 749.726 137.776 749.65 137.834C749.573 137.892 749.52 137.976 749.5 138.07L747.34 147.81L746.34 139.46L742.9 152.06L736.53 150.23L734.62 134.11L732.43 150.11V158.17L781.65 156.72L789.12 153.04L788.25 149.7ZM695.66 146.89L694.15 136.26L691.51 147.62L683.1 146.37L680.93 136.81C680.91 136.722 680.86 136.643 680.79 136.586C680.719 136.53 680.631 136.499 680.54 136.499C680.45 136.499 680.362 136.53 680.291 136.586C680.22 136.643 680.17 136.722 680.15 136.81L678 147.1L672.4 146L671.59 130.47L669.69 147.61L668.6 136.82C668.6 136.735 668.566 136.654 668.506 136.594C668.446 136.534 668.365 136.5 668.28 136.5C668.195 136.5 668.114 136.534 668.054 136.594C667.994 136.654 667.96 136.735 667.96 136.82L666.68 148.49L661.68 147.9L659.68 137.9L658.81 149.43H651.54L650.29 140.59L648.78 150.3L647.29 144.7C647.263 144.594 647.202 144.501 647.116 144.434C647.03 144.367 646.924 144.33 646.815 144.33C646.706 144.33 646.6 144.367 646.514 144.434C646.428 144.501 646.367 144.594 646.34 144.7L645 150.52L641.75 137.52L639.49 150.52H633.73L632.92 139.44L631.73 151L629.73 149.81L629.34 142.67C629.328 142.611 629.297 142.558 629.25 142.52C629.204 142.482 629.145 142.461 629.085 142.461C629.025 142.461 628.967 142.482 628.92 142.52C628.874 142.558 628.842 142.611 628.83 142.67L627.09 151L625.52 136.8L622.58 150.06L618 148.77L616.93 138.68L615.06 146L613.43 135.73L611.68 145.25L610.11 138.42L607.23 149.42L602.91 148.98L601.71 142.59C601.687 142.448 601.615 142.318 601.508 142.223C601.4 142.127 601.263 142.071 601.119 142.064C600.976 142.057 600.834 142.099 600.718 142.184C600.601 142.269 600.517 142.391 600.48 142.53L598.48 149.3L585.48 148.86L584.23 142.16L581.97 149.3L581 143.82L579.56 149.02H575.6L574.66 144.45L573.91 149.58H571.22L570.33 145.15L569.2 150.15L651.54 156.41L696.85 155L695.66 146.89Z" fill="white"/>
<path d="M408.1 148.1V156.03M593.35 142.07V150V142.07ZM595.47 124.5V132.43V124.5ZM592.89 126.05V133.98V126.05ZM597.98 124.5V132.43V124.5ZM603.41 124.98V128.67V124.98ZM605.64 123.58V127.27V123.58ZM608.5 124.2V127.89V124.2ZM585.21 126.36V134.29V126.36ZM583.08 127.47V135.4V127.47ZM575.44 125.63V133.56V125.63ZM573.28 127.47V135.4V127.47ZM570.57 127.09V135.02V127.09ZM561.17 126.82V134.75V126.82ZM558 128.47V136.4V128.47ZM555.08 129.33V137.26V129.33ZM551.75 129.33V137.26V129.33ZM548.56 127.47V135.4V127.47ZM546.5 129.33V137.26V129.33ZM543.96 128.47V136.4V128.47ZM533.91 129.07V137V129.07ZM532.31 130.79V138.72V130.79ZM530.33 129.6V137.53V129.6ZM527.81 131.05V138.98V131.05ZM525.35 132.05V139.98V132.05ZM521.93 130.59V138.52V130.59ZM519.29 129.6V137.53V129.6ZM514.47 131.43V139.36V131.43ZM512.42 130.79V138.72V130.79ZM509.8 132.43V140.36V132.43ZM506.85 131.43V139.36V131.43ZM501.95 133.3V141.23V133.3ZM499.09 133.77V141.7V133.77ZM497.05 133.03V140.96V133.03ZM494.71 134.55V142.48V134.55ZM490.38 133.98V141.91V133.98ZM426.62 143.24V151.17V143.24ZM424.13 144.76V152.68V144.76ZM418.81 145.74V153.67V145.74ZM415.73 145.33V153.25V145.33ZM413.42 147.2V155.13V147.2ZM410.52 146.79V154.72V146.79Z" stroke="white" stroke-miterlimit="10" stroke-linecap="round"/>
<path d="M538.48 127.89L537.03 134.29L540.28 134.55L538.48 127.89V127.89ZM564.53 126.05L563.01 132.05H566.4L564.53 126.05V126.05ZM588.64 122.81L587.33 129.6L590.5 129.33L588.64 122.81V122.81ZM483.83 138.98L483.14 134.29L482.38 140.36L483.83 138.98ZM478.37 139.98L476.71 135.02L475.4 141.7L473.46 141.91L472.43 137.53L471.28 142.77H468.9L468.07 136.02L467.38 143.33H465.31L463.93 139.36L463.31 143.33L460.26 143.75L459.12 139.98L458.57 144.02L447.9 145.06L446.93 140.36L445.96 145.4H442.92L441.75 140.36L440.57 146.06L438.29 145.54L437.39 141.23L436.5 146.06H432.73L431.25 141.91L430 146.65L428.41 143.54L427.93 146.65L428.55 148.72H459.12L479.82 144.71L478.37 139.98Z" fill="white"/>
<path d="M938.88 98.58L950.48 110.17M76.3198 167.36V25.77V167.36ZM76.3198 71.46L62.8198 57.97L76.3198 71.46ZM76.3198 101.15L95.9798 81.49L76.3198 101.15ZM76.3198 135.97L53.5898 113.24L76.3198 135.97ZM123.1 71.46V154.3V71.46ZM123.1 108.65L131.9 99.86L123.1 108.65ZM123.1 135.97L114.34 127.21L123.1 135.97ZM165.28 72.42V165.57V72.42ZM175.21 91.22L165.28 101.15L175.21 91.22ZM165.28 142.77L144.65 122.14L165.28 142.77ZM805.52 119.51V181.88V119.51ZM814.89 134.77L806.21 143.45L814.89 134.77ZM792.41 156.72L805.52 169.84L792.41 156.72ZM842.47 83.57V163.28V83.57ZM850.77 102.64L843 110.4L850.77 102.64ZM831.22 134.77L842.47 146.01L831.22 134.77ZM881.55 40.48V146.01V40.48ZM887.44 75.6L881.55 81.49L887.44 75.6ZM871.11 115.76L881.55 126.2L871.11 115.76ZM908.17 88.95V153.88V88.95ZM918.36 104.14L908.17 114.33L918.36 104.14ZM897.98 129.13L908.17 139.32L897.98 129.13ZM950.48 53.9V136.12V53.9ZM960.48 79.32L950.66 89.14L960.48 79.32Z" stroke="#F0ECFF" stroke-linecap="round" stroke-linejoin="round"/>
<path d="M268.29 156.79C269.152 156.79 269.85 156.092 269.85 155.23C269.85 154.368 269.152 153.67 268.29 153.67C267.428 153.67 266.73 154.368 266.73 155.23C266.73 156.092 267.428 156.79 268.29 156.79Z" fill="white"/>
<path d="M295.49 187.35C295.49 187.35 296.27 176.64 301.49 170.45M254.1 174.11C254.1 174.11 258.47 161.29 268.29 155.23L254.1 174.11ZM261.62 161.09L260.63 156.38L261.62 161.09ZM257.96 166.19H262.37H257.96Z" stroke="white" stroke-miterlimit="10"/>
<path d="M269.17 171.29C270.031 171.29 270.73 170.592 270.73 169.73C270.73 168.868 270.031 168.17 269.17 168.17C268.308 168.17 267.61 168.868 267.61 169.73C267.61 170.592 268.308 171.29 269.17 171.29Z" fill="white"/>
<path d="M301.48 172.1C302.341 172.1 303.04 171.402 303.04 170.54C303.04 169.678 302.341 168.98 301.48 168.98C300.618 168.98 299.92 169.678 299.92 170.54C299.92 171.402 300.618 172.1 301.48 172.1Z" fill="white"/>
<path d="M270.54 173.57L272.47 171.63M269.53 170.94C269.53 170.94 272.2 179.6 271.38 184.74L269.53 170.94ZM298.33 175.75L296.03 170.94L298.33 175.75ZM296.75 180.38L300.64 179.45L296.75 180.38ZM267.55 175.42L270.8 176.07L267.55 175.42Z" stroke="white" stroke-miterlimit="10"/>
<path d="M473.29 25.48L471.91 25.83C471.775 25.8645 471.65 25.9287 471.543 26.0181C471.437 26.1074 471.351 26.2195 471.294 26.3462C471.236 26.4729 471.208 26.6108 471.211 26.75C471.213 26.8891 471.247 27.0258 471.31 27.15L475.56 35.62L483.67 33.56L474.54 25.77C474.369 25.6269 474.167 25.5261 473.95 25.4757C473.733 25.4254 473.507 25.4268 473.29 25.48V25.48Z" fill="#6137FE"/>
<path d="M475.56 35.62L471.31 27.15C471.247 27.0258 471.213 26.8891 471.211 26.75C471.208 26.6109 471.236 26.4729 471.294 26.3462C471.351 26.2195 471.437 26.1074 471.543 26.0181C471.65 25.9287 471.775 25.8645 471.91 25.83L472.16 25.77L476.93 35.27L475.56 35.62Z" fill="white"/>
<path d="M463.336 38.207L491.808 31.124C492.106 31.0498 492.416 31.035 492.72 31.0806C493.024 31.1261 493.316 31.2311 493.579 31.3896C493.843 31.548 494.072 31.7567 494.255 32.0039C494.438 32.251 494.57 32.5317 494.644 32.83C494.72 33.1287 494.735 33.4394 494.691 33.7443C494.646 34.0491 494.541 34.3421 494.383 34.6065C494.225 34.8708 494.016 35.1013 493.768 35.2846C493.52 35.468 493.239 35.6007 492.94 35.675L464.468 42.758L463.336 38.207Z" fill="white"/>
<path d="M463.79 34.42C463.616 34.461 463.452 34.5362 463.307 34.6411C463.163 34.746 463.04 34.8785 462.947 35.0311C462.854 35.1836 462.793 35.3531 462.766 35.5298C462.739 35.7064 462.747 35.8866 462.79 36.06L463.88 40.48L468.69 39.28L465.16 34.88C464.999 34.6814 464.784 34.5327 464.542 34.4512C464.299 34.3698 464.038 34.359 463.79 34.42V34.42Z" fill="white"/>
<path d="M464.49 42.89L493 35.8C493.51 35.6738 493.962 35.3789 494.284 34.9632C494.605 34.5475 494.776 34.0354 494.77 33.51L464.09 41.14L464.49 42.89Z" fill="#6137FE"/>
<path d="M478.83 50L477.45 50.34C477.314 50.3746 477.173 50.3782 477.036 50.3505C476.898 50.3228 476.769 50.2645 476.658 50.1799C476.546 50.0953 476.455 49.9866 476.392 49.862C476.328 49.7373 476.293 49.5999 476.29 49.46L476 40L484.12 38L479.75 49.17C479.671 49.3701 479.547 49.5492 479.388 49.6932C479.228 49.8372 479.037 49.9422 478.83 50V50Z" fill="#6137FE"/>
<path d="M476 40L476.25 49.47C476.253 49.6099 476.288 49.7473 476.352 49.872C476.415 49.9966 476.506 50.1053 476.618 50.1899C476.729 50.2745 476.858 50.3328 476.996 50.3605C477.133 50.3882 477.274 50.3847 477.41 50.35L477.66 50.29L477.38 39.66L476 40Z" fill="white"/>
<path d="M459.28 39.67L288.47 79.87L460.19 42.89" stroke="white" stroke-width="1.24" stroke-miterlimit="10" stroke-linecap="round"/>
<path d="M763.83 169.26C764.531 169.26 765.1 168.691 765.1 167.99C765.1 167.289 764.531 166.72 763.83 166.72C763.129 166.72 762.56 167.289 762.56 167.99C762.56 168.691 763.129 169.26 763.83 169.26Z" fill="white"/>
<path d="M756.95 176.86L755.11 173.89M755.22 184C755.22 184 755.28 175.48 763.83 168L755.22 184ZM758.25 174.27L762.15 173.12L758.25 174.27Z" stroke="white" stroke-miterlimit="10"/>
<defs>
<linearGradient id="paint0_linear" x1="520.5" y1="-10.5" x2="527.585" y2="203.21" gradientUnits="userSpaceOnUse">
<stop stop-color="#F0ECFF" stop-opacity="0"/>
<stop offset="1" stop-color="#F0ECFF"/>
</linearGradient>
</defs>
</svg>
