<svg width="222" height="24" viewBox="0 0 222 24" fill="none" xmlns="http://www.w3.org/2000/svg">
<path opacity="0.3" d="M0 12H111" stroke="#6137FE" stroke-width="1.5" stroke-dasharray="10 2"/>
<path opacity="0.3" d="M111 12H222" stroke="black" stroke-width="1.5" stroke-dasharray="10 2"/>
<g clip-path="url(#clip0)">
<path d="M117.901 11.7644C117.899 11.8292 117.852 11.8624 117.808 11.9001C117.349 12.2975 116.891 12.696 116.433 13.0941C115.869 13.5834 115.305 14.0722 114.742 14.5623C114.423 14.8406 114.104 15.1202 113.785 15.3993C113.285 15.8363 112.784 16.2726 112.286 16.7111C111.83 17.1123 111.379 17.5188 110.921 17.9184C110.378 18.3924 109.829 18.86 109.285 19.3332C108.946 19.628 108.612 19.9285 108.274 20.224C107.798 20.6404 107.319 21.0534 106.843 21.4698C106.5 21.77 106.161 22.0739 105.818 22.3744C105.411 22.7325 105.002 23.0886 104.555 23.4784C104.555 20.8395 104.555 18.2452 104.555 15.6514C104.754 15.59 104.952 15.5259 105.152 15.4672C106.626 15.0347 108.101 14.6019 109.576 14.1718C111.087 13.7309 112.599 13.2916 114.111 12.8531C115.161 12.5484 116.214 12.2517 117.261 11.9352C117.439 11.8814 117.652 11.891 117.79 11.7262C117.827 11.7259 117.864 11.7255 117.901 11.7251C117.901 11.7381 117.901 11.751 117.901 11.7644Z" fill="#6137FE"/>
<path d="M104.477 7.79076C104.481 7.75377 104.486 7.7164 104.49 7.67941C104.515 7.68018 104.53 7.75301 104.553 7.69924C104.572 7.65691 104.557 7.59933 104.557 7.54861C104.557 5.10842 104.557 2.66861 104.557 0.228422C104.557 0.158637 104.557 0.0892328 104.557 -5.83394e-07C104.769 0.103724 104.914 0.27075 105.077 0.409558C105.644 0.895384 106.196 1.39837 106.758 1.88992C107.415 2.4646 108.078 3.03127 108.735 3.60556C109.297 4.09711 109.852 4.59743 110.414 5.08859C111.071 5.66289 111.734 6.23032 112.392 6.80424C112.94 7.28282 113.481 7.76865 114.029 8.24723C114.582 8.73 115.14 9.20591 115.692 9.68831C116.145 10.0838 116.593 10.4849 117.044 10.8819C117.296 11.1031 117.55 11.3212 117.805 11.5389C117.849 11.5767 117.896 11.6091 117.903 11.6728L117.901 11.6839C117.512 11.5698 117.124 11.4551 116.735 11.3418C115.482 10.9776 114.23 10.6146 112.978 10.2504C111.908 9.93961 110.838 9.62844 109.768 9.3165C108.522 8.95347 107.277 8.58548 106.03 8.2274C105.513 8.0802 105.003 7.90669 104.477 7.79076Z" fill="#6137FE"/>
<path d="M117.79 11.7262C117.653 11.891 117.439 11.8814 117.261 11.9352C116.215 12.2517 115.162 12.548 114.111 12.8531C112.599 13.292 111.087 13.7309 109.576 14.1718C108.101 14.6023 106.627 15.0347 105.153 15.4672C104.953 15.5259 104.755 15.59 104.556 15.6513C104.531 15.651 104.506 15.6506 104.482 15.6506C103.28 14.603 102.079 13.5559 100.878 12.5076C100.591 12.257 100.307 12.0035 100.022 11.751C100.09 11.6965 100.169 11.7224 100.243 11.7224C106.016 11.7213 111.789 11.7213 117.562 11.7213C117.638 11.7213 117.714 11.7243 117.79 11.7262Z" fill="#6137FE"/>
<path d="M117.901 11.6846C117.901 11.698 117.901 11.7113 117.901 11.7247C117.864 11.725 117.827 11.7254 117.79 11.7258C117.714 11.7243 117.638 11.7212 117.562 11.7212C111.789 11.7209 106.016 11.7209 100.242 11.7224C100.169 11.7224 100.09 11.6964 100.022 11.751C99.9553 11.6625 100.056 11.6473 100.09 11.6171C101.315 10.5418 102.542 9.46866 103.77 8.39634C104.004 8.19232 104.241 7.9925 104.477 7.79077C105.003 7.9067 105.513 8.07983 106.03 8.22855C107.277 8.58663 108.522 8.95462 109.768 9.31765C110.838 9.62959 111.908 9.94038 112.978 10.2516C114.23 10.6154 115.482 10.9788 116.735 11.3429C117.124 11.4558 117.512 11.5706 117.901 11.6846Z" fill="#6137FE"/>
</g>
<defs>
<clipPath id="clip0">
<rect width="23.4783" height="17.9031" fill="white" transform="translate(117.903) rotate(90)"/>
</clipPath>
</defs>
</svg>
