<svg width="157" height="58" viewBox="0 0 157 58" fill="none" xmlns="http://www.w3.org/2000/svg">
<circle cx="29.4144" cy="28.6948" r="28.6791" fill="#6137FE"/>
<g clip-path="url(#clip0)">
<path d="M29.4976 12.8096C29.6133 12.8144 29.6725 12.8981 29.7399 12.9764C30.4492 13.7959 31.1604 14.6134 31.871 15.4315C32.7443 16.4368 33.6169 17.4435 34.4916 18.4482C34.9885 19.0186 35.4874 19.5869 35.9856 20.1566C36.7656 21.049 37.5443 21.9433 38.3271 22.833C39.0431 23.647 39.7687 24.4522 40.482 25.269C41.3281 26.2383 42.1626 27.2178 43.0073 28.1891C43.5334 28.7942 44.0698 29.3904 44.5973 29.9942C45.3406 30.8443 46.0777 31.6985 46.821 32.548C47.3567 33.1599 47.8991 33.7657 48.4355 34.3769C49.0746 35.1045 49.7104 35.8349 50.406 36.6319C45.6959 36.6319 41.0654 36.6319 36.4355 36.6319C36.3259 36.2766 36.2116 35.9227 36.1068 35.566C35.3349 32.9346 34.5624 30.3032 33.7946 27.6704C33.0077 24.9729 32.2236 22.2741 31.4409 19.576C30.897 17.7015 30.3675 15.8222 29.8025 13.9531C29.7066 13.6346 29.7236 13.2548 29.4295 13.0091C29.4289 12.943 29.4282 12.877 29.4275 12.811C29.4506 12.8103 29.4738 12.8096 29.4976 12.8096Z" fill="#E8E8E8"/>
<path d="M22.4053 36.7708C22.3393 36.7633 22.2726 36.7558 22.2066 36.7477C22.2079 36.7041 22.3379 36.6775 22.242 36.6353C22.1664 36.602 22.0636 36.6292 21.9731 36.6292C17.6176 36.6292 13.2627 36.6292 8.90722 36.6292C8.78266 36.6292 8.65879 36.6292 8.49951 36.6292C8.68465 36.2501 8.98278 35.9908 9.23054 35.7008C10.0977 34.6887 10.9955 33.7038 11.8728 32.7005C12.8986 31.5277 13.91 30.3434 14.9351 29.1706C15.8125 28.1673 16.7055 27.1776 17.5822 26.1743C18.6073 25.0016 19.6201 23.8179 20.6445 22.6445C21.4987 21.6664 22.3658 20.6991 23.2201 19.721C24.0818 18.7348 24.9312 17.739 25.7923 16.7527C26.4981 15.9441 27.2142 15.1457 27.9227 14.3398C28.3175 13.8905 28.7068 13.4365 29.0955 12.9819C29.1629 12.9036 29.2207 12.8199 29.3344 12.8069L29.3541 12.8103C29.1506 13.5046 28.9457 14.1982 28.7436 14.8925C28.0936 17.1277 27.4456 19.363 26.7955 21.5983C26.2408 23.5082 25.6854 25.4174 25.1286 27.3274C24.4806 29.5511 23.8238 31.7727 23.1847 33.9992C22.9219 34.9215 22.6122 35.8322 22.4053 36.7708Z" fill="#E8E8E8"/>
<path d="M29.4295 13.0083C29.7236 13.2541 29.7066 13.6346 29.8025 13.9524C30.3675 15.8208 30.8964 17.7001 31.4409 19.5753C32.2243 22.2741 33.0078 24.9722 33.7946 27.6697C34.5631 30.3025 35.3349 32.9339 36.1068 35.5653C36.2116 35.922 36.326 36.2759 36.4355 36.6312C36.4349 36.6754 36.4342 36.719 36.4342 36.7632C34.5644 38.9073 32.6953 41.0514 30.8242 43.1948C30.377 43.7066 29.9244 44.2137 29.4738 44.7228C29.3765 44.6024 29.4227 44.4608 29.4227 44.3294C29.4207 34.025 29.4207 23.7205 29.4207 13.4161C29.4207 13.2799 29.4261 13.1438 29.4295 13.0083Z" fill="#D1D1D1"/>
<path d="M29.3553 12.8103C29.3792 12.8103 29.403 12.8103 29.4268 12.8103C29.4275 12.8763 29.4282 12.9423 29.4288 13.0083C29.4261 13.1445 29.4207 13.2799 29.4207 13.416C29.42 23.7205 29.42 34.025 29.4227 44.3294C29.4227 44.4608 29.3764 44.6024 29.4738 44.7228C29.3159 44.8419 29.2886 44.6623 29.2349 44.6017C27.3154 42.4147 25.4 40.2244 23.486 38.0327C23.1219 37.6154 22.7652 37.1921 22.4052 36.7707C22.6121 35.8321 22.9211 34.9214 23.1865 33.9991C23.8257 31.7727 24.4825 29.551 25.1305 27.3273C25.6873 25.4181 26.242 23.5081 26.7974 21.5982C27.4468 19.3629 28.0954 17.1277 28.7455 14.8924C28.9469 14.1981 29.1518 13.5045 29.3553 12.8103Z" fill="#BABABA"/>
</g>
<path d="M89.7537 39.5159C89.8014 39.7069 89.8253 39.8502 89.8253 39.9458C89.8253 40.2563 89.7178 40.507 89.5029 40.6981C89.2879 40.8892 89.0372 40.9847 88.7505 40.9847C88.5117 40.9847 88.2968 40.925 88.1057 40.8056C87.9385 40.6623 87.8071 40.4832 87.7116 40.2682L85.0247 33.7121H73.3814L70.7303 40.2682C70.5393 40.7459 70.2168 40.9847 69.7631 40.9847C69.4287 40.9847 69.1779 40.9011 69.0107 40.7339C68.8435 40.5667 68.748 40.3399 68.7241 40.0532V39.9458C68.7241 39.8025 68.7361 39.695 68.7599 39.6233L78.2179 16.4801C78.4089 16.0024 78.7672 15.7636 79.2926 15.7636C79.5315 15.7636 79.7345 15.8352 79.9017 15.9785C80.0927 16.098 80.236 16.2651 80.3316 16.4801L89.7537 39.5159ZM84.1649 31.5984L79.1493 19.3461L74.2054 31.5984H84.1649ZM113.128 30.7386C113.128 31.0252 113.021 31.276 112.806 31.491C112.591 31.682 112.34 31.7776 112.054 31.7776H98.5116C98.5116 33.2106 98.7982 34.5003 99.3714 35.6467C99.9685 36.7692 100.804 37.6649 101.879 38.3336C102.978 38.9785 104.268 39.3009 105.748 39.3009C106.895 39.3009 107.922 39.0621 108.829 38.5844C109.737 38.1067 110.465 37.4977 111.015 36.7573C111.277 36.5424 111.528 36.4349 111.767 36.4349C112.006 36.4349 112.221 36.5304 112.412 36.7215C112.603 36.9125 112.698 37.1275 112.698 37.3663C112.698 37.6291 112.579 37.8798 112.34 38.1187C111.576 39.0501 110.609 39.8144 109.438 40.4115C108.292 41.0086 107.074 41.3071 105.784 41.3071C103.945 41.3071 102.321 40.9131 100.912 40.1249C99.5028 39.3367 98.4041 38.2381 97.6159 36.829C96.8278 35.3959 96.4337 33.748 96.4337 31.885C96.4337 29.9266 96.8158 28.2189 97.5801 26.762C98.3683 25.2812 99.4072 24.1587 100.697 23.3944C101.987 22.6063 103.36 22.2122 104.817 22.2122C106.25 22.2122 107.587 22.5465 108.829 23.2153C110.095 23.884 111.122 24.8633 111.91 26.153C112.698 27.4427 113.104 28.9712 113.128 30.7386ZM104.817 24.29C103.432 24.29 102.142 24.7677 100.948 25.7231C99.7774 26.6784 99.0251 28.0517 98.6907 29.843H110.907V29.5564C110.788 28.4816 110.43 27.5502 109.832 26.762C109.235 25.95 108.483 25.3409 107.575 24.9349C106.692 24.505 105.772 24.29 104.817 24.29ZM130.062 22.2122C130.539 22.2122 130.969 22.3077 131.351 22.4988C131.734 22.6898 131.925 22.9764 131.925 23.3586C131.925 23.693 131.829 23.9676 131.638 24.1826C131.447 24.3736 131.22 24.4692 130.957 24.4692C130.838 24.4692 130.599 24.4095 130.241 24.29C129.907 24.1706 129.584 24.1109 129.274 24.1109C128.39 24.1109 127.506 24.4572 126.623 25.1499C125.763 25.8186 125.046 26.6904 124.473 27.7651C123.924 28.8399 123.649 29.9266 123.649 31.0252V39.8741C123.649 40.1846 123.542 40.4473 123.327 40.6623C123.136 40.8533 122.885 40.9489 122.574 40.9489C122.264 40.9489 122.001 40.8533 121.786 40.6623C121.595 40.4473 121.499 40.1846 121.499 39.8741V23.8243C121.499 23.5138 121.595 23.263 121.786 23.072C122.001 22.857 122.264 22.7496 122.574 22.7496C122.885 22.7496 123.136 22.857 123.327 23.072C123.542 23.263 123.649 23.5138 123.649 23.8243V26.977C124.198 25.6156 125.022 24.4931 126.121 23.6094C127.244 22.7018 128.557 22.2361 130.062 22.2122ZM155.33 31.7776C155.33 33.5688 154.936 35.1929 154.147 36.6498C153.359 38.1067 152.273 39.2531 150.887 40.0891C149.502 40.9011 147.962 41.3071 146.266 41.3071C144.57 41.3071 143.03 40.9011 141.644 40.0891C140.259 39.2531 139.172 38.1067 138.384 36.6498C137.596 35.1929 137.202 33.5688 137.202 31.7776C137.202 29.9863 137.596 28.3622 138.384 26.9053C139.172 25.4484 140.259 24.302 141.644 23.4661C143.03 22.6301 144.57 22.2122 146.266 22.2122C147.962 22.2122 149.502 22.6301 150.887 23.4661C152.273 24.302 153.359 25.4484 154.147 26.9053C154.936 28.3622 155.33 29.9863 155.33 31.7776ZM153.18 31.7776C153.18 30.3445 152.882 29.0548 152.284 27.9084C151.687 26.762 150.851 25.8664 149.777 25.2215C148.726 24.5528 147.556 24.2184 146.266 24.2184C144.976 24.2184 143.806 24.5528 142.755 25.2215C141.704 25.8664 140.868 26.762 140.247 27.9084C139.65 29.0548 139.351 30.3445 139.351 31.7776C139.351 33.1867 139.65 34.4645 140.247 35.6109C140.868 36.7573 141.704 37.6649 142.755 38.3336C143.806 38.9785 144.976 39.3009 146.266 39.3009C147.556 39.3009 148.726 38.9785 149.777 38.3336C150.851 37.6888 151.687 36.7931 152.284 35.6467C152.882 34.5003 153.18 33.2106 153.18 31.7776Z" fill="#111111"/>
<defs>
<clipPath id="clip0">
<rect width="41.9066" height="31.9555" fill="white" transform="translate(8.49951 12.8069)"/>
</clipPath>
</defs>
</svg>
