<svg width="36" height="36" viewBox="0 0 36 36" fill="none" xmlns="http://www.w3.org/2000/svg">
<rect width="36" height="36" fill="white"/>
<path fill-rule="evenodd" clip-rule="evenodd" d="M20 6.00068C16.667 5.97696 13.3331 6.00001 10 6.00001C8.33567 6.00001 8 6.33567 8 8.00001V30C8 31.6643 8.33566 32 10 32H26C27.6643 32 28 31.6643 28 30C28 29.3187 28.1125 28.5 29 28.5C29.9056 28.5 30 29.3436 30 30.032C30 32.689 28.6891 34.0001 26.032 34H9.96802C7.31094 34.0001 6 32.689 6 30.032V7.96802C6 5.3114 7.31059 3.99996 9.96747 4.00001L19.8268 3.99997C20.9392 3.9991 21.7498 4.33438 22.5358 5.12157L22.5367 5.12247L28.8776 11.4633C29.6468 12.2314 30.0009 13.0613 30.0001 14.1717L30 16.75C30 17.3023 29.5523 17.75 29 17.75C28.4477 17.75 28 17.3023 28 16.75C28 15.8334 28.0061 14.9166 27.9993 14H23C21.3431 14 20 12.6569 20 11V6.00068ZM26.5858 12L22 7.41423V11C22 11.5523 22.4477 12 23 12H26.5858Z" fill="#3F3F3F"/>
<path d="M11 17C11 16.4477 11.4477 16 12 16H24C24.5523 16 25 16.4477 25 17C25 17.5523 24.5523 18 24 18H12C11.4477 18 11 17.5523 11 17Z" fill="#3F3F3F"/>
<path d="M12 12C11.4477 12 11 12.4477 11 13C11 13.5523 11.4477 14 12 14H16C16.5523 14 17 13.5523 17 13C17 12.4477 16.5523 12 16 12H12Z" fill="#3F3F3F"/>
<path fill-rule="evenodd" clip-rule="evenodd" d="M19.3333 24.5833C19.7238 24.1928 20.357 24.1928 20.7475 24.5833L23.1341 26.97L28.6145 21.4896C29.0051 21.0991 29.6382 21.0991 30.0287 21.4896C30.4193 21.8801 30.4193 22.5133 30.0287 22.9038L23.8413 29.0913C23.4507 29.4818 22.8176 29.4818 22.427 29.0913L19.3333 25.9975C18.9428 25.607 18.9428 24.9738 19.3333 24.5833Z" fill="#5200FF"/>
</svg>
